<svg width="200" height="200" viewBox="0 0 200 200" fill="none" xmlns="http://www.w3.org/2000/svg">
<path d="M108.333 133.333H91.6667C87.0833 133.333 83.3333 129.583 83.3333 125H25.0833V158.333C25.0833 167.5 32.5833 175 41.75 175H158.333C167.5 175 175 167.5 175 158.333V125H116.667C116.667 129.583 112.917 133.333 108.333 133.333ZM166.667 58.3333H133.333C133.333 39.9167 118.417 25 100 25C81.5833 25 66.6667 39.9167 66.6667 58.3333H33.3333C24.1667 58.3333 16.6667 65.8333 16.6667 75V100C16.6667 109.25 24.0833 116.667 33.3333 116.667H83.3333V108.333C83.3333 103.75 87.0833 100 91.6667 100H108.333C112.917 100 116.667 103.75 116.667 108.333V116.667H166.667C175.833 116.667 183.333 109.167 183.333 100V75C183.333 65.8333 175.833 58.3333 166.667 58.3333ZM83.3333 58.3333C83.3333 49.1667 90.8333 41.6667 100 41.6667C109.167 41.6667 116.667 49.1667 116.667 58.3333H83.25H83.3333Z" fill="#DBE2EF"/>
</svg>
