<svg width="200" height="200" viewBox="0 0 200 200" fill="#112D4E" xmlns="http://www.w3.org/2000/svg">
<path d="M100 16.6667C58.5833 16.6667 25 50.25 25 91.6667C25 126.417 48.6667 155.583 80.75 164.083L100 183.333L119.25 164.083C151.333 155.583 175 126.417 175 91.6667C175 50.25 141.417 16.6667 100 16.6667ZM100 33.3334C113.833 33.3334 125 44.5 125 58.3334C125 72.1667 113.833 83.3334 100 83.3334C86.1667 83.3334 75 72.1667 75 58.3334C75 44.5 86.1667 33.3334 100 33.3334ZM100 152.5C79.1667 152.5 60.75 141.833 50 125.667C50.25 109.083 83.3333 100 100 100C116.583 100 149.75 109.083 150 125.667C139.25 141.833 120.833 152.5 100 152.5Z"/>
</svg>
